<svg class="img-fluid" id="outputsvg" xmlns="http://www.w3.org/2000/svg" style="transform: matrix(0.769231, 0, 0, 0.769231, 0, 0); transform-origin: 50% 50%; cursor: move; transition: transform 200ms ease-in-out 0s;" width="450" height="450" viewBox="0 0 4500 4500"><g id="l4QiPnTXGQDxnN5xaaqSG0T" fill="rgb(0,0,0)" style="transform: none;"><g><path id="puRg9n1bL" d="M2161 4093 c-19 -10 -44 -31 -55 -46 -21 -28 -21 -37 -26 -978 l-5 -949 -130 131 c-75 75 -147 139 -170 150 -73 34 -171 20 -220 -31 -23 -25 -30 -41 -33 -90 -9 -121 -20 -105 306 -432 162 -163 310 -304 328 -313 37 -17 139 -20 181 -4 15 5 164 148 330 316 331 334 319 318 311 433 -3 49 -10 65 -33 90 -47 49 -141 65 -213 35 -22 -10 -92 -70 -174 -153 l-138 -137 0 940 c0 875 -1 942 -18 974 -27 55 -63 75 -140 79 -50 2 -76 -1 -101 -15z"></path><path id="p9CmbkRyx" d="M982 3388 c-450 -56 -828 -345 -957 -731 l-26 -79 3 -301 3 -302 34 -80 c93 -219 241 -388 448 -512 123 -75 293 -139 431 -163 l73 -13 28 -61 c90 -195 268 -406 446 -526 280 -189 631 -265 995 -215 597 81 1028 476 1181 1084 16 63 30 115 32 116 1 1 45 11 97 23 351 83 614 298 716 586 22 60 20 528 -2 593 -28 83 -62 147 -110 214 -127 172 -294 276 -558 347 l-101 27 -497 0 -497 0 -30 -29 c-76 -73 -64 -237 21 -283 30 -16 74 -19 483 -24 507 -6 510 -7 684 -91 96 -46 198 -140 243 -223 34 -64 68 -186 68 -245 -1 -202 -167 -405 -411 -503 -69 -28 -246 -67 -301 -67 -42 0 -93 -31 -111 -67 -8 -15 -20 -64 -26 -108 -44 -283 -141 -496 -312 -678 -89 -97 -159 -151 -269 -210 -314 -169 -660 -179 -963 -26 -227 114 -386 291 -492 547 -38 92 -67 128 -109 136 -12 2 -66 11 -120 20 -376 62 -662 291 -743 596 -26 96 -23 236 5 330 87 282 301 475 626 562 74 20 113 22 436 27 407 7 406 7 442 88 26 59 21 147 -12 193 -43 60 -45 60 -427 59 -191 -1 -381 -6 -421 -11z"></path></g></g><g id="l5ddyfiiPrSc1YQxAmiMdkN" fill="rgb(255,255,255)" style="transform: none;"><g><path id="pnIZoMh9F" d="M1 3448 c0 -597 4 -1044 9 -1033 5 11 9 36 9 55 2 96 90 312 169 418 200 266 489 428 837 471 50 6 226 11 393 11 330 0 341 -2 380 -57 32 -46 36 -86 14 -137 -36 -80 -36 -80 -442 -87 -323 -5 -362 -7 -436 -27 -325 -87 -538 -279 -626 -562 -30 -97 -33 -289 -6 -390 83 -305 368 -534 744 -596 54 -9 108 -18 120 -20 42 -8 71 -44 109 -136 49 -118 94 -196 162 -280 210 -260 516 -392 867 -375 510 25 908 358 1035 866 11 42 25 112 32 156 6 44 18 93 26 108 18 36 69 67 111 67 19 0 80 9 135 21 184 37 310 101 422 214 141 141 188 321 134 515 -29 104 -63 164 -139 240 -72 72 -145 115 -261 154 -120 40 -188 45 -610 46 -365 1 -398 3 -437 20 -34 15 -47 29 -63 65 -26 58 -17 106 27 154 l32 36 469 0 468 0 101 -27 c365 -98 575 -278 673 -579 12 -34 21 -78 22 -98 0 -20 4 -45 9 -56 5 -11 9 394 9 938 l1 957 -2250 0 -2250 0 1 -1052z m2328 605 c14 -11 34 -35 43 -54 17 -32 18 -100 18 -1004 l0 -969 173 171 c188 186 214 203 284 184 47 -13 90 -56 99 -99 15 -77 12 -81 -314 -410 -267 -270 -312 -311 -345 -317 -88 -17 -90 -15 -390 283 -346 344 -342 339 -342 413 0 50 4 62 30 89 16 16 46 35 68 41 70 19 96 2 284 -184 l173 -171 2 981 c3 975 3 982 24 1010 46 62 134 79 193 36z"></path><path id="pqZ2c3ca9" d="M4486 2383 c-40 -343 -333 -628 -746 -725 -52 -12 -96 -22 -97 -23 -2 -1 -16 -53 -32 -116 -121 -479 -413 -828 -833 -994 -500 -199 -1058 -103 -1429 243 -124 116 -236 268 -300 408 l-28 61 -73 13 c-332 58 -649 266 -804 527 -53 88 -101 208 -115 286 -6 34 -14 80 -19 102 -4 22 -8 -456 -9 -1062 l-1 -1103 2250 0 2250 0 0 1220 c0 671 -2 1220 -4 1220 -2 0 -7 -26 -10 -57z"></path></g></g></svg>